<svg width="167" height="35" viewBox="0 0 167 35" fill="none" xmlns="http://www.w3.org/2000/svg">
<mask id="path-1-outside-1_110_3" maskUnits="userSpaceOnUse" x="-1" y="0" width="168" height="35" fill="black">
<rect fill="white" x="-1" width="168" height="35"/>
<path d="M12.6406 26.2969C11.1562 26.2969 10.2812 25.3906 10.2812 23.8438V17.5781L3.40625 6.95312C3.0625 6.42188 2.92188 5.89062 2.92188 5.35938C2.92188 4.07812 3.92188 3.14062 5.28125 3.14062C6.29688 3.14062 6.84375 3.51562 7.46875 4.59375L12.625 13.0781H12.7344L17.9062 4.59375C18.5 3.5625 19.1094 3.14062 20.0469 3.14062C21.375 3.14062 22.375 4.07812 22.375 5.32812C22.375 5.875 22.2188 6.39062 21.875 6.9375L15 17.5781V23.8438C15 25.3906 14.125 26.2969 12.6406 26.2969ZM26.3438 26.2656C23.1562 26.2656 20.7344 24.2031 20.7344 21.1875C20.7344 18.1406 23.0781 16.375 27.2656 16.125L31.4844 15.875V14.7656C31.4844 13.2031 30.3906 12.2969 28.6719 12.2969C27.2812 12.2969 26.4375 12.75 25.4219 14.0625C24.9219 14.625 24.3438 14.9062 23.6094 14.9062C22.5 14.9062 21.7031 14.1875 21.7031 13.1562C21.7031 12.7969 21.7812 12.4688 21.9375 12.125C22.7188 10.125 25.4062 8.89062 28.875 8.89062C33.1719 8.89062 35.9688 11.1094 35.9688 14.4844V24.0312C35.9688 25.5469 35.0469 26.3281 33.75 26.3281C32.5156 26.3281 31.6562 25.6406 31.5625 24.2969V23.4375H31.4688C30.5312 25.2188 28.4375 26.2656 26.3438 26.2656ZM27.8438 22.9688C29.8438 22.9688 31.4844 21.6719 31.4844 19.8594V18.6406L27.9531 18.8594C26.25 18.9844 25.2812 19.75 25.2812 20.9375C25.2812 22.1875 26.3125 22.9688 27.8438 22.9688ZM41.2031 31.9688C39.875 31.9688 38.9219 31.1562 38.9219 29.5938V11.25C38.9219 9.71875 39.8594 8.90625 41.1719 8.90625C42.4844 8.90625 43.4219 9.71875 43.4219 11.2656V12.1719H43.5156C44.4219 10.2031 46.2812 8.98438 48.7031 8.98438C52.9531 8.98438 55.5625 12.2188 55.5625 17.625C55.5625 23.0156 52.9688 26.2656 48.7812 26.2656C46.3438 26.2656 44.4688 25.0781 43.5781 23.1875H43.4844V29.5938C43.4844 31.1562 42.5469 31.9688 41.2031 31.9688ZM47.1719 22.5938C49.4531 22.5938 50.8906 20.6719 50.8906 17.625C50.8906 14.5938 49.4531 12.6406 47.1719 12.6406C44.9375 12.6406 43.4688 14.625 43.4688 17.625C43.4688 20.6562 44.9375 22.5938 47.1719 22.5938ZM64.75 26.3594C60.9062 26.3594 58.3438 24.9844 57.5469 23.0156C57.4375 22.7188 57.375 22.4219 57.375 22.1719C57.375 21.125 58.1562 20.4219 59.2188 20.4219C59.9531 20.4219 60.5781 20.75 61.2031 21.4531C62.0938 22.625 63.125 23.1562 64.8594 23.1562C66.5156 23.1562 67.5938 22.4688 67.5938 21.3594C67.5938 20.4531 67.0156 19.9688 65.375 19.6094L62.5625 19.0156C59.2812 18.3125 57.625 16.6406 57.625 14.1562C57.625 10.9531 60.3906 8.89062 64.7344 8.89062C68.2031 8.89062 70.75 10.4688 71.2969 12.3594C71.3594 12.5938 71.4062 12.8125 71.4062 13.0312C71.4062 13.9531 70.8281 14.5938 69.6562 14.5938C69.0625 14.5938 68.4062 14.375 68 13.8906C67.2031 12.875 66.2969 12.0938 64.6562 12.0938C63.1094 12.0938 62.0312 12.8281 62.0312 13.9062C62.0312 14.7812 62.6875 15.3594 64.3594 15.7188L67.125 16.3125C70.6875 17.0625 72.1562 18.375 72.1562 20.875C72.1562 24.2031 69.1719 26.3594 64.75 26.3594ZM91.2031 26.375C84.5156 26.375 80.4531 22 80.4531 14.7188C80.4531 7.45312 84.5938 3.0625 91.0781 3.0625C95.2969 3.0625 98.5625 4.9375 100.109 8.1875C100.422 8.78125 100.578 9.39062 100.578 9.95312C100.578 11.1875 99.75 11.9844 98.5 11.9844C97.4375 11.9844 96.7656 11.5156 96.25 10.4219C95.2188 8.125 93.375 6.96875 91.125 6.96875C87.5625 6.96875 85.2656 9.95312 85.2656 14.7031C85.2656 19.5156 87.5312 22.4844 91.1406 22.4844C93.5156 22.4844 95.2969 21.4062 96.3125 19.1406C96.7969 18.0781 97.3906 17.6562 98.3906 17.6562C99.7188 17.6562 100.594 18.5 100.594 19.75C100.594 20.2812 100.469 20.7812 100.234 21.3281C98.8281 24.4531 95.4688 26.375 91.2031 26.375ZM108.438 26.2656C105.25 26.2656 102.828 24.2031 102.828 21.1875C102.828 18.1406 105.172 16.375 109.359 16.125L113.578 15.875V14.7656C113.578 13.2031 112.484 12.2969 110.766 12.2969C109.375 12.2969 108.531 12.75 107.516 14.0625C107.016 14.625 106.438 14.9062 105.703 14.9062C104.594 14.9062 103.797 14.1875 103.797 13.1562C103.797 12.7969 103.875 12.4688 104.031 12.125C104.812 10.125 107.5 8.89062 110.969 8.89062C115.266 8.89062 118.062 11.1094 118.062 14.4844V24.0312C118.062 25.5469 117.141 26.3281 115.844 26.3281C114.609 26.3281 113.75 25.6406 113.656 24.2969V23.4375H113.562C112.625 25.2188 110.531 26.2656 108.438 26.2656ZM109.938 22.9688C111.938 22.9688 113.578 21.6719 113.578 19.8594V18.6406L110.047 18.8594C108.344 18.9844 107.375 19.75 107.375 20.9375C107.375 22.1875 108.406 22.9688 109.938 22.9688ZM124.516 26.3281C123.156 26.3281 122.234 25.5312 122.234 23.9531V12.6875H121.359C120.406 12.6875 119.688 12.0781 119.688 11C119.688 9.9375 120.406 9.32812 121.359 9.32812H122.234V8.0625C122.234 4.75 123.859 3.28125 127.016 3.25C129.438 3.25 130.453 4.01562 130.453 5.09375C130.453 5.73438 130.141 6.10938 129.531 6.29688C129.281 6.35938 129 6.40625 128.656 6.42188C127.25 6.46875 126.688 7.03125 126.688 8.26562V9.32812H128.609C129.562 9.32812 130.281 9.9375 130.281 11C130.281 12.0781 129.562 12.6875 128.609 12.6875H126.797V23.9531C126.797 25.5312 125.859 26.3281 124.516 26.3281ZM139.656 26.3594C134.422 26.3594 131.344 23.125 131.344 17.7031C131.344 12.3125 134.484 8.89062 139.438 8.89062C144.188 8.89062 147.375 12.1406 147.375 16.6875C147.375 17.9531 146.656 18.6719 145.391 18.6719H135.828V18.875C135.828 21.3594 137.328 22.9844 139.641 22.9844C141.312 22.9844 142.406 22.4219 143.641 20.9688C144.125 20.4688 144.531 20.2969 145.125 20.2969C146.109 20.2969 146.906 20.9219 146.906 21.9688C146.906 22.3281 146.797 22.7031 146.594 23.0781C145.484 25.1406 142.891 26.3594 139.656 26.3594ZM135.875 15.875H142.984C142.891 13.6875 141.484 12.2656 139.484 12.2656C137.484 12.2656 136.031 13.7344 135.875 15.875ZM156.562 26.3594C152.719 26.3594 150.156 24.9844 149.359 23.0156C149.25 22.7188 149.188 22.4219 149.188 22.1719C149.188 21.125 149.969 20.4219 151.031 20.4219C151.766 20.4219 152.391 20.75 153.016 21.4531C153.906 22.625 154.938 23.1562 156.672 23.1562C158.328 23.1562 159.406 22.4688 159.406 21.3594C159.406 20.4531 158.828 19.9688 157.188 19.6094L154.375 19.0156C151.094 18.3125 149.438 16.6406 149.438 14.1562C149.438 10.9531 152.203 8.89062 156.547 8.89062C160.016 8.89062 162.562 10.4688 163.109 12.3594C163.172 12.5938 163.219 12.8125 163.219 13.0312C163.219 13.9531 162.641 14.5938 161.469 14.5938C160.875 14.5938 160.219 14.375 159.812 13.8906C159.016 12.875 158.109 12.0938 156.469 12.0938C154.922 12.0938 153.844 12.8281 153.844 13.9062C153.844 14.7812 154.5 15.3594 156.172 15.7188L158.938 16.3125C162.5 17.0625 163.969 18.375 163.969 20.875C163.969 24.2031 160.984 26.3594 156.562 26.3594Z"/>
</mask>
<path d="M12.6406 26.2969C11.1562 26.2969 10.2812 25.3906 10.2812 23.8438V17.5781L3.40625 6.95312C3.0625 6.42188 2.92188 5.89062 2.92188 5.35938C2.92188 4.07812 3.92188 3.14062 5.28125 3.14062C6.29688 3.14062 6.84375 3.51562 7.46875 4.59375L12.625 13.0781H12.7344L17.9062 4.59375C18.5 3.5625 19.1094 3.14062 20.0469 3.14062C21.375 3.14062 22.375 4.07812 22.375 5.32812C22.375 5.875 22.2188 6.39062 21.875 6.9375L15 17.5781V23.8438C15 25.3906 14.125 26.2969 12.6406 26.2969ZM26.3438 26.2656C23.1562 26.2656 20.7344 24.2031 20.7344 21.1875C20.7344 18.1406 23.0781 16.375 27.2656 16.125L31.4844 15.875V14.7656C31.4844 13.2031 30.3906 12.2969 28.6719 12.2969C27.2812 12.2969 26.4375 12.75 25.4219 14.0625C24.9219 14.625 24.3438 14.9062 23.6094 14.9062C22.5 14.9062 21.7031 14.1875 21.7031 13.1562C21.7031 12.7969 21.7812 12.4688 21.9375 12.125C22.7188 10.125 25.4062 8.89062 28.875 8.89062C33.1719 8.89062 35.9688 11.1094 35.9688 14.4844V24.0312C35.9688 25.5469 35.0469 26.3281 33.75 26.3281C32.5156 26.3281 31.6562 25.6406 31.5625 24.2969V23.4375H31.4688C30.5312 25.2188 28.4375 26.2656 26.3438 26.2656ZM27.8438 22.9688C29.8438 22.9688 31.4844 21.6719 31.4844 19.8594V18.6406L27.9531 18.8594C26.25 18.9844 25.2812 19.75 25.2812 20.9375C25.2812 22.1875 26.3125 22.9688 27.8438 22.9688ZM41.2031 31.9688C39.875 31.9688 38.9219 31.1562 38.9219 29.5938V11.25C38.9219 9.71875 39.8594 8.90625 41.1719 8.90625C42.4844 8.90625 43.4219 9.71875 43.4219 11.2656V12.1719H43.5156C44.4219 10.2031 46.2812 8.98438 48.7031 8.98438C52.9531 8.98438 55.5625 12.2188 55.5625 17.625C55.5625 23.0156 52.9688 26.2656 48.7812 26.2656C46.3438 26.2656 44.4688 25.0781 43.5781 23.1875H43.4844V29.5938C43.4844 31.1562 42.5469 31.9688 41.2031 31.9688ZM47.1719 22.5938C49.4531 22.5938 50.8906 20.6719 50.8906 17.625C50.8906 14.5938 49.4531 12.6406 47.1719 12.6406C44.9375 12.6406 43.4688 14.625 43.4688 17.625C43.4688 20.6562 44.9375 22.5938 47.1719 22.5938ZM64.75 26.3594C60.9062 26.3594 58.3438 24.9844 57.5469 23.0156C57.4375 22.7188 57.375 22.4219 57.375 22.1719C57.375 21.125 58.1562 20.4219 59.2188 20.4219C59.9531 20.4219 60.5781 20.75 61.2031 21.4531C62.0938 22.625 63.125 23.1562 64.8594 23.1562C66.5156 23.1562 67.5938 22.4688 67.5938 21.3594C67.5938 20.4531 67.0156 19.9688 65.375 19.6094L62.5625 19.0156C59.2812 18.3125 57.625 16.6406 57.625 14.1562C57.625 10.9531 60.3906 8.89062 64.7344 8.89062C68.2031 8.89062 70.75 10.4688 71.2969 12.3594C71.3594 12.5938 71.4062 12.8125 71.4062 13.0312C71.4062 13.9531 70.8281 14.5938 69.6562 14.5938C69.0625 14.5938 68.4062 14.375 68 13.8906C67.2031 12.875 66.2969 12.0938 64.6562 12.0938C63.1094 12.0938 62.0312 12.8281 62.0312 13.9062C62.0312 14.7812 62.6875 15.3594 64.3594 15.7188L67.125 16.3125C70.6875 17.0625 72.1562 18.375 72.1562 20.875C72.1562 24.2031 69.1719 26.3594 64.75 26.3594ZM91.2031 26.375C84.5156 26.375 80.4531 22 80.4531 14.7188C80.4531 7.45312 84.5938 3.0625 91.0781 3.0625C95.2969 3.0625 98.5625 4.9375 100.109 8.1875C100.422 8.78125 100.578 9.39062 100.578 9.95312C100.578 11.1875 99.75 11.9844 98.5 11.9844C97.4375 11.9844 96.7656 11.5156 96.25 10.4219C95.2188 8.125 93.375 6.96875 91.125 6.96875C87.5625 6.96875 85.2656 9.95312 85.2656 14.7031C85.2656 19.5156 87.5312 22.4844 91.1406 22.4844C93.5156 22.4844 95.2969 21.4062 96.3125 19.1406C96.7969 18.0781 97.3906 17.6562 98.3906 17.6562C99.7188 17.6562 100.594 18.5 100.594 19.75C100.594 20.2812 100.469 20.7812 100.234 21.3281C98.8281 24.4531 95.4688 26.375 91.2031 26.375ZM108.438 26.2656C105.25 26.2656 102.828 24.2031 102.828 21.1875C102.828 18.1406 105.172 16.375 109.359 16.125L113.578 15.875V14.7656C113.578 13.2031 112.484 12.2969 110.766 12.2969C109.375 12.2969 108.531 12.75 107.516 14.0625C107.016 14.625 106.438 14.9062 105.703 14.9062C104.594 14.9062 103.797 14.1875 103.797 13.1562C103.797 12.7969 103.875 12.4688 104.031 12.125C104.812 10.125 107.5 8.89062 110.969 8.89062C115.266 8.89062 118.062 11.1094 118.062 14.4844V24.0312C118.062 25.5469 117.141 26.3281 115.844 26.3281C114.609 26.3281 113.75 25.6406 113.656 24.2969V23.4375H113.562C112.625 25.2188 110.531 26.2656 108.438 26.2656ZM109.938 22.9688C111.938 22.9688 113.578 21.6719 113.578 19.8594V18.6406L110.047 18.8594C108.344 18.9844 107.375 19.75 107.375 20.9375C107.375 22.1875 108.406 22.9688 109.938 22.9688ZM124.516 26.3281C123.156 26.3281 122.234 25.5312 122.234 23.9531V12.6875H121.359C120.406 12.6875 119.688 12.0781 119.688 11C119.688 9.9375 120.406 9.32812 121.359 9.32812H122.234V8.0625C122.234 4.75 123.859 3.28125 127.016 3.25C129.438 3.25 130.453 4.01562 130.453 5.09375C130.453 5.73438 130.141 6.10938 129.531 6.29688C129.281 6.35938 129 6.40625 128.656 6.42188C127.25 6.46875 126.688 7.03125 126.688 8.26562V9.32812H128.609C129.562 9.32812 130.281 9.9375 130.281 11C130.281 12.0781 129.562 12.6875 128.609 12.6875H126.797V23.9531C126.797 25.5312 125.859 26.3281 124.516 26.3281ZM139.656 26.3594C134.422 26.3594 131.344 23.125 131.344 17.7031C131.344 12.3125 134.484 8.89062 139.438 8.89062C144.188 8.89062 147.375 12.1406 147.375 16.6875C147.375 17.9531 146.656 18.6719 145.391 18.6719H135.828V18.875C135.828 21.3594 137.328 22.9844 139.641 22.9844C141.312 22.9844 142.406 22.4219 143.641 20.9688C144.125 20.4688 144.531 20.2969 145.125 20.2969C146.109 20.2969 146.906 20.9219 146.906 21.9688C146.906 22.3281 146.797 22.7031 146.594 23.0781C145.484 25.1406 142.891 26.3594 139.656 26.3594ZM135.875 15.875H142.984C142.891 13.6875 141.484 12.2656 139.484 12.2656C137.484 12.2656 136.031 13.7344 135.875 15.875ZM156.562 26.3594C152.719 26.3594 150.156 24.9844 149.359 23.0156C149.25 22.7188 149.188 22.4219 149.188 22.1719C149.188 21.125 149.969 20.4219 151.031 20.4219C151.766 20.4219 152.391 20.75 153.016 21.4531C153.906 22.625 154.938 23.1562 156.672 23.1562C158.328 23.1562 159.406 22.4688 159.406 21.3594C159.406 20.4531 158.828 19.9688 157.188 19.6094L154.375 19.0156C151.094 18.3125 149.438 16.6406 149.438 14.1562C149.438 10.9531 152.203 8.89062 156.547 8.89062C160.016 8.89062 162.562 10.4688 163.109 12.3594C163.172 12.5938 163.219 12.8125 163.219 13.0312C163.219 13.9531 162.641 14.5938 161.469 14.5938C160.875 14.5938 160.219 14.375 159.812 13.8906C159.016 12.875 158.109 12.0938 156.469 12.0938C154.922 12.0938 153.844 12.8281 153.844 13.9062C153.844 14.7812 154.5 15.3594 156.172 15.7188L158.938 16.3125C162.5 17.0625 163.969 18.375 163.969 20.875C163.969 24.2031 160.984 26.3594 156.562 26.3594Z" fill="white"/>
<path d="M10.2812 17.5781H13.2812V16.6922L12.8 15.9484L10.2812 17.5781ZM3.40625 6.95312L0.88754 8.58288L3.40625 6.95312ZM7.46875 4.59375L4.87333 6.09834L4.88892 6.12523L4.90506 6.15179L7.46875 4.59375ZM12.625 13.0781L10.0613 14.6362L10.9376 16.0781H12.625V13.0781ZM12.7344 13.0781V16.0781H14.4191L15.296 14.6396L12.7344 13.0781ZM17.9062 4.59375L20.4678 6.15524L20.4874 6.12318L20.5061 6.09064L17.9062 4.59375ZM21.875 6.9375L24.3948 8.56557L24.405 8.54985L24.4149 8.53401L21.875 6.9375ZM15 17.5781L12.4802 15.9501L12 16.6933V17.5781H15ZM12.6406 23.2969C12.5723 23.2969 12.6039 23.2864 12.6999 23.3224C12.8038 23.3614 12.9402 23.4396 13.0654 23.5697C13.3355 23.8502 13.2812 24.0627 13.2812 23.8438H7.28125C7.28125 25.1717 7.66449 26.6108 8.74315 27.7311C9.83637 28.8666 11.28 29.2969 12.6406 29.2969V23.2969ZM13.2812 23.8438V17.5781H7.28125V23.8438H13.2812ZM12.8 15.9484L5.92496 5.32337L0.88754 8.58288L7.76254 19.2079L12.8 15.9484ZM5.92496 5.32337C5.91247 5.30406 5.9079 5.29421 5.90766 5.29371C5.90751 5.29337 5.91009 5.29901 5.91325 5.30975C5.91641 5.3205 5.91886 5.33197 5.92036 5.34273C5.92184 5.35331 5.92188 5.35938 5.92188 5.35938H-0.078125C-0.078125 6.46431 0.227146 7.56227 0.88754 8.58288L5.92496 5.32337ZM5.92188 5.35938C5.92188 5.53346 5.83927 5.77433 5.64599 5.95592C5.46329 6.12758 5.29883 6.14062 5.28125 6.14062V0.140625C2.44403 0.140625 -0.078125 2.24775 -0.078125 5.35938H5.92188ZM5.28125 6.14062C5.35501 6.14062 5.32008 6.14797 5.2221 6.12298C5.11001 6.09438 4.97781 6.03956 4.8541 5.95685C4.73874 5.87972 4.6885 5.81684 4.69773 5.82796C4.71238 5.84561 4.77004 5.92017 4.87333 6.09834L10.0642 3.08916C9.66297 2.3971 9.09127 1.57225 8.18887 0.968934C7.20916 0.313926 6.18119 0.140625 5.28125 0.140625V6.14062ZM4.90506 6.15179L10.0613 14.6362L15.1887 11.5201L10.0324 3.03571L4.90506 6.15179ZM12.625 16.0781H12.7344V10.0781H12.625V16.0781ZM15.296 14.6396L20.4678 6.15524L15.3447 3.03226L10.1728 11.5166L15.296 14.6396ZM20.5061 6.09064C20.5907 5.94375 20.6416 5.87894 20.6551 5.86293C20.6653 5.85072 20.6283 5.89737 20.5377 5.95915C20.4411 6.02501 20.3269 6.07853 20.2114 6.11096C20.1027 6.14147 20.0381 6.14062 20.0469 6.14062V0.140625C19.0862 0.140625 18.084 0.370187 17.1576 1.00179C16.295 1.58998 15.7202 2.37809 15.3064 3.09686L20.5061 6.09064ZM20.0469 6.14062C19.997 6.14062 19.8304 6.11694 19.6555 5.95263C19.4715 5.77995 19.375 5.537 19.375 5.32812H25.375C25.375 2.2461 22.8511 0.140625 20.0469 0.140625V6.14062ZM19.375 5.32812C19.375 5.32093 19.3756 5.30718 19.3782 5.28944C19.3809 5.27163 19.3846 5.25699 19.3875 5.24759C19.3903 5.23856 19.3905 5.24036 19.3839 5.25436C19.3771 5.26881 19.3625 5.29736 19.3351 5.34099L24.4149 8.53401C25.0159 7.57788 25.375 6.51616 25.375 5.32812H19.375ZM19.3552 5.30943L12.4802 15.9501L17.5198 19.2062L24.3948 8.56557L19.3552 5.30943ZM12 17.5781V23.8438H18V17.5781H12ZM12 23.8438C12 24.0627 11.9457 23.8502 12.2158 23.5697C12.341 23.4396 12.4774 23.3614 12.5814 23.3224C12.6774 23.2864 12.7089 23.2969 12.6406 23.2969V29.2969C14.0013 29.2969 15.4449 28.8666 16.5381 27.7311C17.6168 26.6108 18 25.1717 18 23.8438H12ZM27.2656 16.125L27.0882 13.1303L27.0868 13.1303L27.2656 16.125ZM31.4844 15.875L31.6618 18.8697L34.4844 18.7025V15.875H31.4844ZM25.4219 14.0625L27.6641 16.0556L27.732 15.9792L27.7945 15.8984L25.4219 14.0625ZM21.9375 12.125L24.6686 13.3664L24.7023 13.2923L24.7319 13.2166L21.9375 12.125ZM31.5625 24.2969H28.5625V24.4014L28.5698 24.5057L31.5625 24.2969ZM31.5625 23.4375H34.5625V20.4375H31.5625V23.4375ZM31.4688 23.4375V20.4375H29.6576L28.814 22.0403L31.4688 23.4375ZM31.4844 18.6406H34.4844V15.449L31.2989 15.6464L31.4844 18.6406ZM27.9531 18.8594L27.7676 15.8651L27.7506 15.8662L27.7335 15.8674L27.9531 18.8594ZM26.3438 23.2656C24.4719 23.2656 23.7344 22.2245 23.7344 21.1875H17.7344C17.7344 26.1818 21.8406 29.2656 26.3438 29.2656V23.2656ZM23.7344 21.1875C23.7344 20.539 23.9313 20.2372 24.259 19.9851C24.7135 19.6355 25.6764 19.2252 27.4444 19.1197L27.0868 13.1303C24.6674 13.2748 22.3646 13.8723 20.6004 15.2297C18.7093 16.6846 17.7344 18.7891 17.7344 21.1875H23.7344ZM27.4431 19.1197L31.6618 18.8697L31.3069 12.8803L27.0882 13.1303L27.4431 19.1197ZM34.4844 15.875V14.7656H28.4844V15.875H34.4844ZM34.4844 14.7656C34.4844 13.2374 33.9207 11.7437 32.684 10.6753C31.504 9.65572 30.0304 9.29688 28.6719 9.29688V15.2969C29.0321 15.2969 28.9648 15.3912 28.7613 15.2154C28.658 15.1261 28.575 15.0103 28.5253 14.8934C28.4783 14.7826 28.4844 14.7265 28.4844 14.7656H34.4844ZM28.6719 9.29688C27.6309 9.29688 26.5451 9.47097 25.4768 10.05C24.452 10.6054 23.6857 11.4041 23.0493 12.2266L27.7945 15.8984C27.9799 15.6589 28.1146 15.5145 28.2078 15.4277C28.2528 15.3858 28.285 15.3602 28.3051 15.3454C28.3246 15.3311 28.3345 15.3257 28.3357 15.325C28.3367 15.3245 28.3353 15.3252 28.3339 15.3257C28.3328 15.3262 28.3389 15.3237 28.3559 15.3201C28.3914 15.3124 28.4848 15.2969 28.6719 15.2969V9.29688ZM23.1796 12.0694C23.1492 12.1037 23.1954 12.0424 23.3261 11.9809C23.388 11.9517 23.4507 11.9313 23.5079 11.9192C23.564 11.9072 23.6004 11.9062 23.6094 11.9062V17.9062C25.277 17.9062 26.6476 17.1992 27.6641 16.0556L23.1796 12.0694ZM23.6094 11.9062C23.7026 11.9062 23.9783 11.9424 24.2633 12.2028C24.5684 12.4814 24.7031 12.8574 24.7031 13.1562H18.7031C18.7031 14.4864 19.2363 15.7373 20.2171 16.6331C21.178 17.5107 22.4068 17.9062 23.6094 17.9062V11.9062ZM24.7031 13.1562C24.7031 13.1996 24.6978 13.2533 24.6855 13.3069C24.6737 13.3579 24.6621 13.3806 24.6686 13.3664L19.2064 10.8836C18.895 11.5687 18.7031 12.3184 18.7031 13.1562H24.7031ZM24.7319 13.2166C24.7615 13.1408 24.9322 12.8176 25.6618 12.4788C26.3837 12.1436 27.4719 11.8906 28.875 11.8906V5.89062C26.8093 5.89062 24.8194 6.25479 23.1351 7.03679C21.4584 7.81526 19.8948 9.10924 19.1431 11.0334L24.7319 13.2166ZM28.875 11.8906C30.537 11.8906 31.5979 12.3212 32.1737 12.776C32.6842 13.1793 32.9688 13.7076 32.9688 14.4844H38.9688C38.9688 11.8861 37.8549 9.61759 35.8927 8.0677C33.9959 6.56939 31.5099 5.89062 28.875 5.89062V11.8906ZM32.9688 14.4844V24.0312H38.9688V14.4844H32.9688ZM32.9688 24.0312C32.9688 24.1079 32.9571 24.0791 32.9932 23.9822C33.0319 23.8783 33.1106 23.738 33.2458 23.6055C33.5358 23.3213 33.8021 23.3281 33.75 23.3281V29.3281C34.9948 29.3281 36.3704 28.9443 37.4456 27.8906C38.535 26.8229 38.9688 25.4082 38.9688 24.0312H32.9688ZM33.75 23.3281C33.6815 23.3281 33.9313 23.3151 34.2259 23.578C34.3656 23.7026 34.4578 23.842 34.5101 23.9591C34.5595 24.0699 34.5578 24.1254 34.5552 24.0881L28.5698 24.5057C28.6597 25.7943 29.1546 27.0942 30.2312 28.0548C31.2875 28.9974 32.5842 29.3281 33.75 29.3281V23.3281ZM34.5625 24.2969V23.4375H28.5625V24.2969H34.5625ZM31.5625 20.4375H31.4688V26.4375H31.5625V20.4375ZM28.814 22.0403C28.5005 22.6358 27.5694 23.2656 26.3438 23.2656V29.2656C29.3056 29.2656 32.562 27.8017 34.1235 24.8347L28.814 22.0403ZM27.8438 25.9688C30.9688 25.9688 34.4844 23.8147 34.4844 19.8594H28.4844C28.4844 19.8594 28.4844 19.8587 28.4845 19.8573C28.4845 19.8559 28.4847 19.8538 28.485 19.8513C28.4856 19.846 28.4867 19.8393 28.4885 19.8314C28.4923 19.815 28.4981 19.7994 28.5045 19.7864C28.5179 19.759 28.5234 19.7642 28.4922 19.7902C28.422 19.8488 28.2102 19.9688 27.8438 19.9688V25.9688ZM34.4844 19.8594V18.6406H28.4844V19.8594H34.4844ZM31.2989 15.6464L27.7676 15.8651L28.1386 21.8536L31.6699 21.6349L31.2989 15.6464ZM27.7335 15.8674C26.5268 15.956 25.2129 16.2913 24.1318 17.1358C22.9489 18.0597 22.2812 19.4201 22.2812 20.9375H28.2812C28.2812 21.0575 28.2543 21.2422 28.1555 21.4447C28.0568 21.6471 27.9263 21.7853 27.8253 21.8642C27.7321 21.937 27.6886 21.9412 27.7487 21.9215C27.8089 21.9018 27.944 21.8681 28.1727 21.8513L27.7335 15.8674ZM22.2812 20.9375C22.2812 22.4746 22.9553 23.8578 24.1394 24.7844C25.2507 25.6541 26.6012 25.9688 27.8438 25.9688V19.9688C27.5551 19.9688 27.6243 19.8927 27.8372 20.0594C27.9515 20.1488 28.0758 20.2877 28.1663 20.4746C28.2569 20.6615 28.2812 20.8296 28.2812 20.9375H22.2812ZM43.4219 12.1719H40.4219V15.1719H43.4219V12.1719ZM43.5156 12.1719V15.1719H45.4373L46.2408 13.4263L43.5156 12.1719ZM43.5781 23.1875L46.2921 21.909L45.4811 20.1875H43.5781V23.1875ZM43.4844 23.1875V20.1875H40.4844V23.1875H43.4844ZM41.2031 28.9688C41.1472 28.9688 41.3969 28.9611 41.6702 29.2304C41.7967 29.3551 41.8688 29.4853 41.9032 29.5778C41.9352 29.6636 41.9219 29.6811 41.9219 29.5938H35.9219C35.9219 30.996 36.3644 32.4255 37.4587 33.5039C38.5406 34.5702 39.9309 34.9688 41.2031 34.9688V28.9688ZM41.9219 29.5938V11.25H35.9219V29.5938H41.9219ZM41.9219 11.25C41.9219 11.1718 41.9338 11.1946 41.9007 11.2834C41.8654 11.3784 41.7925 11.5099 41.6655 11.6357C41.3904 11.9081 41.1335 11.9062 41.1719 11.9062V5.90625C39.8978 5.90625 38.5158 6.31069 37.4438 7.37216C36.3615 8.44388 35.9219 9.86119 35.9219 11.25H41.9219ZM41.1719 11.9062C41.2099 11.9062 40.9496 11.9076 40.673 11.6324C40.5458 11.5058 40.4743 11.3749 40.4405 11.2831C40.4089 11.1977 40.4219 11.1802 40.4219 11.2656H46.4219C46.4219 9.87725 45.9873 8.45614 44.9052 7.37933C43.8317 6.31113 42.4464 5.90625 41.1719 5.90625V11.9062ZM40.4219 11.2656V12.1719H46.4219V11.2656H40.4219ZM43.4219 15.1719H43.5156V9.17188H43.4219V15.1719ZM46.2408 13.4263C46.6358 12.5681 47.4003 11.9844 48.7031 11.9844V5.98438C45.1622 5.98438 42.2079 7.83813 40.7905 10.9174L46.2408 13.4263ZM48.7031 11.9844C49.994 11.9844 50.814 12.4367 51.3809 13.1477C52.0137 13.9412 52.5625 15.3646 52.5625 17.625H58.5625C58.5625 14.4791 57.8066 11.5822 56.0722 9.40702C54.2719 7.14928 51.6623 5.98438 48.7031 5.98438V11.9844ZM52.5625 17.625C52.5625 19.8792 52.0167 21.3099 51.3864 22.1094C50.8222 22.8249 50.0208 23.2656 48.7812 23.2656V29.2656C51.7292 29.2656 54.3184 28.0813 56.098 25.8242C57.8114 23.651 58.5625 20.7615 58.5625 17.625H52.5625ZM48.7812 23.2656C47.3949 23.2656 46.6422 22.6524 46.2921 21.909L40.8642 24.466C42.2953 27.5039 45.2926 29.2656 48.7812 29.2656V23.2656ZM43.5781 20.1875H43.4844V26.1875H43.5781V20.1875ZM40.4844 23.1875V29.5938H46.4844V23.1875H40.4844ZM40.4844 29.5938C40.4844 29.6866 40.4704 29.6724 40.5015 29.588C40.5351 29.4965 40.6073 29.3637 40.7367 29.2355C41.0179 28.9571 41.2742 28.9688 41.2031 28.9688V34.9688C42.4758 34.9688 43.8727 34.5742 44.9586 33.4988C46.0542 32.4139 46.4844 30.9821 46.4844 29.5938H40.4844ZM47.1719 25.5938C49.2555 25.5938 51.0763 24.6696 52.2887 23.0493C53.4343 21.5183 53.8906 19.5785 53.8906 17.625H47.8906C47.8906 18.7183 47.6282 19.2629 47.4848 19.4546C47.4217 19.5388 47.3822 19.5583 47.3737 19.5626C47.3655 19.5667 47.3121 19.5938 47.1719 19.5938V25.5938ZM53.8906 17.625C53.8906 15.6762 53.4331 13.7384 52.2945 12.2065C51.0907 10.5869 49.2727 9.64062 47.1719 9.64062V15.6406C47.3045 15.6406 47.3537 15.6664 47.3611 15.6701C47.3698 15.6745 47.4123 15.696 47.4789 15.7857C47.6294 15.9882 47.8906 16.5425 47.8906 17.625H53.8906ZM47.1719 9.64062C45.062 9.64062 43.2596 10.6216 42.0734 12.2199C40.9432 13.7428 40.4688 15.6719 40.4688 17.625H46.4688C46.4688 16.5781 46.7287 16.015 46.8915 15.7957C46.9655 15.696 47.0149 15.6694 47.025 15.6642C47.0319 15.6607 47.0684 15.6406 47.1719 15.6406V9.64062ZM40.4688 17.625C40.4688 19.5878 40.9406 21.5213 42.0811 23.0444C43.2805 24.646 45.0873 25.5938 47.1719 25.5938V19.5938C47.0567 19.5938 47.0142 19.5714 47.0067 19.5676C46.9973 19.5629 46.9525 19.5396 46.8837 19.4478C46.7313 19.2443 46.4688 18.6935 46.4688 17.625H40.4688ZM57.5469 23.0156L54.7318 24.0527L54.7482 24.0972L54.766 24.1412L57.5469 23.0156ZM61.2031 21.4531L63.5916 19.6379L63.5219 19.5461L63.4454 19.46L61.2031 21.4531ZM65.375 19.6094L66.0169 16.6789L66.0058 16.6764L65.9947 16.6741L65.375 19.6094ZM62.5625 19.0156L61.9339 21.949L61.9428 21.9509L62.5625 19.0156ZM71.2969 12.3594L74.1956 11.5864L74.1875 11.556L74.1787 11.5258L71.2969 12.3594ZM68 13.8906L65.6398 15.7425L65.67 15.781L65.7014 15.8185L68 13.8906ZM64.3594 15.7188L63.7289 18.6518L63.7297 18.6519L64.3594 15.7188ZM67.125 16.3125L66.4953 19.2457L66.507 19.2481L67.125 16.3125ZM64.75 23.3594C61.3681 23.3594 60.4355 22.1564 60.3277 21.89L54.766 24.1412C56.252 27.8124 60.4444 29.3594 64.75 29.3594V23.3594ZM60.3619 21.9785C60.3542 21.9575 60.3548 21.954 60.3585 21.9723C60.3606 21.9825 60.3644 22.003 60.3679 22.0338C60.3713 22.0641 60.375 22.1107 60.375 22.1719H54.375C54.375 22.8743 54.5396 23.5308 54.7318 24.0527L60.3619 21.9785ZM60.375 22.1719C60.375 22.4322 60.2593 22.8041 59.9468 23.0962C59.6526 23.3711 59.3516 23.4219 59.2188 23.4219V17.4219C58.0234 17.4219 56.8005 17.8242 55.8501 18.7124C54.8813 19.6178 54.375 20.8647 54.375 22.1719H60.375ZM59.2188 23.4219C59.1759 23.4219 59.114 23.4167 59.0417 23.3991C58.9692 23.3815 58.909 23.3569 58.8659 23.3344C58.7843 23.2919 58.8186 23.2861 58.9609 23.4462L63.4454 19.46C62.4315 18.3194 61.0485 17.4219 59.2188 17.4219V23.4219ZM58.8146 23.2684C59.4745 24.1366 60.3068 24.9197 61.424 25.4522C62.525 25.977 63.6887 26.1562 64.8594 26.1562V20.1562C64.2957 20.1562 64.0766 20.0698 64.0057 20.0361C63.951 20.01 63.8224 19.9415 63.5916 19.6379L58.8146 23.2684ZM64.8594 26.1562C66.0497 26.1562 67.3657 25.917 68.4855 25.1873C69.7109 24.3887 70.5938 23.043 70.5938 21.3594H64.5938C64.5938 21.133 64.6537 20.8645 64.7997 20.6111C64.9403 20.3668 65.1085 20.2264 65.2098 20.1604C65.3764 20.0518 65.3253 20.1562 64.8594 20.1562V26.1562ZM70.5938 21.3594C70.5938 20.1208 70.1277 18.8586 68.9721 17.9354C68.0586 17.2057 66.9324 16.8794 66.0169 16.6789L64.7331 22.5399C65.0523 22.6098 65.2372 22.6685 65.3324 22.7053C65.4305 22.7432 65.3618 22.7308 65.2271 22.6232C65.0698 22.4975 64.8754 22.2835 64.7393 21.9792C64.6094 21.6888 64.5938 21.4528 64.5938 21.3594H70.5938ZM65.9947 16.6741L63.1822 16.0803L61.9428 21.9509L64.7553 22.5447L65.9947 16.6741ZM63.1911 16.0822C61.888 15.803 61.2549 15.4003 60.9745 15.1225C60.7646 14.9146 60.625 14.6643 60.625 14.1562H54.625C54.625 16.1326 55.3135 17.9604 56.7521 19.3853C58.1201 20.7404 59.9557 21.5251 61.9339 21.949L63.1911 16.0822ZM60.625 14.1562C60.625 13.522 60.8525 13.0921 61.3386 12.7314C61.9098 12.3074 62.9971 11.8906 64.7344 11.8906V5.89062C62.1279 5.89062 59.6605 6.50506 57.763 7.91315C55.7803 9.38447 54.625 11.5874 54.625 14.1562H60.625ZM64.7344 11.8906C66.0285 11.8906 67.0199 12.187 67.6575 12.5402C68.329 12.9123 68.425 13.2274 68.415 13.193L74.1787 11.5258C73.6219 9.60076 72.171 8.1815 70.5652 7.29185C68.9254 6.38334 66.909 5.89062 64.7344 5.89062V11.8906ZM68.3982 13.1324C68.4082 13.1698 68.4142 13.1941 68.4178 13.2098C68.4214 13.2252 68.4215 13.2274 68.4201 13.2196C68.4175 13.2043 68.4062 13.1357 68.4062 13.0312H74.4062C74.4062 12.4056 74.2728 11.8759 74.1956 11.5864L68.3982 13.1324ZM68.4062 13.0312C68.4062 12.8567 68.4764 12.3883 68.9087 11.9792C69.3244 11.5858 69.7094 11.5938 69.6562 11.5938V17.5938C70.7749 17.5938 72.035 17.2814 73.0327 16.3372C74.0471 15.3773 74.4062 14.1277 74.4062 13.0312H68.4062ZM69.6562 11.5938C69.7139 11.5938 69.781 11.6021 69.8687 11.6371C69.9597 11.6734 70.1313 11.7634 70.2986 11.9628L65.7014 15.8185C66.8297 17.1637 68.4428 17.5938 69.6562 17.5938V11.5938ZM70.3602 12.0388C69.8656 11.4084 69.1776 10.6391 68.2005 10.0464C67.174 9.42369 65.9939 9.09375 64.6562 9.09375V15.0938C64.8253 15.0938 64.9233 15.1135 64.9725 15.1268C65.0193 15.1395 65.0533 15.1549 65.0886 15.1763C65.174 15.2281 65.3375 15.3572 65.6398 15.7425L70.3602 12.0388ZM64.6562 9.09375C63.4469 9.09375 62.1513 9.37584 61.0636 10.1239C59.9116 10.9162 59.0312 12.2373 59.0312 13.9062H65.0312C65.0312 14.1541 64.9648 14.417 64.8323 14.6501C64.7053 14.8738 64.5559 15.0041 64.4637 15.0675C64.3018 15.1788 64.3187 15.0938 64.6562 15.0938V9.09375ZM59.0312 13.9062C59.0312 15.2511 59.6064 16.477 60.6928 17.3473C61.6061 18.0789 62.7282 18.4367 63.7289 18.6518L64.9898 12.7857C64.6862 12.7205 64.5016 12.6603 64.4025 12.6208C64.301 12.5803 64.3407 12.5817 64.4439 12.6644C64.5608 12.7581 64.7332 12.9361 64.8652 13.2114C64.9972 13.4869 65.0312 13.7397 65.0312 13.9062H59.0312ZM63.7297 18.6519L66.4953 19.2457L67.7547 13.3793L64.9891 12.7856L63.7297 18.6519ZM66.507 19.2481C68.1124 19.5861 68.7432 19.9627 68.9649 20.1631C69.043 20.2337 69.0659 20.2775 69.0834 20.3213C69.1073 20.3815 69.1562 20.5417 69.1562 20.875H75.1562C75.1562 18.9573 74.5525 17.1258 72.9882 15.7119C71.585 14.4436 69.7001 13.7889 67.743 13.3769L66.507 19.2481ZM69.1562 20.875C69.1562 21.5334 68.9065 22.0274 68.3341 22.4483C67.6845 22.926 66.5109 23.3594 64.75 23.3594V29.3594C67.411 29.3594 69.9405 28.7146 71.8886 27.2821C73.9138 25.7929 75.1562 23.5447 75.1562 20.875H69.1562ZM100.109 8.1875L97.4006 9.4768L97.4265 9.53131L97.4546 9.58474L100.109 8.1875ZM96.25 10.4219L93.5132 11.6506L93.5246 11.676L93.5364 11.7011L96.25 10.4219ZM96.3125 19.1406L93.5828 17.8962L93.5788 17.9048L93.575 17.9135L96.3125 19.1406ZM100.234 21.3281L102.97 22.5592L102.981 22.5346L102.992 22.5099L100.234 21.3281ZM91.2031 23.375C88.5376 23.375 86.7081 22.5232 85.5237 21.2414C84.3121 19.9301 83.4531 17.8168 83.4531 14.7188H77.4531C77.4531 18.902 78.6254 22.6168 81.1169 25.3133C83.6357 28.0393 87.1812 29.375 91.2031 29.375V23.375ZM83.4531 14.7188C83.4531 11.6445 84.3231 9.52161 85.5416 8.19737C86.7347 6.90072 88.5414 6.0625 91.0781 6.0625V0.0625C87.1305 0.0625 83.6246 1.41959 81.1264 4.13466C78.6535 6.82214 77.4531 10.5273 77.4531 14.7188H83.4531ZM91.0781 6.0625C94.3639 6.0625 96.4407 7.46019 97.4006 9.4768L102.818 6.8982C100.684 2.41481 96.2299 0.0625 91.0781 0.0625V6.0625ZM97.4546 9.58474C97.5702 9.80433 97.5781 9.93774 97.5781 9.95312H103.578C103.578 8.84351 103.274 7.75817 102.764 6.79026L97.4546 9.58474ZM97.5781 9.95312C97.5781 9.87908 97.6187 9.57056 97.9156 9.28162C98.2038 9.00115 98.4811 8.98438 98.5 8.98438V14.9844C99.7689 14.9844 101.085 14.5692 102.1 13.5817C103.124 12.5857 103.578 11.2615 103.578 9.95312H97.5781ZM98.5 8.98438C98.4536 8.98438 98.4878 8.97916 98.5732 9.0028C98.6662 9.02857 98.7769 9.07672 98.8823 9.15003C99.0925 9.29613 99.0859 9.40219 98.9636 9.14262L93.5364 11.7011C93.9297 12.5353 94.5169 13.4226 95.4575 14.0765C96.435 14.7561 97.5052 14.9844 98.5 14.9844V8.98438ZM98.9868 9.1931C97.4913 5.86212 94.6036 3.96875 91.125 3.96875V9.96875C92.1464 9.96875 92.9462 10.3879 93.5132 11.6506L98.9868 9.1931ZM91.125 3.96875C88.412 3.96875 86.062 5.14844 84.472 7.23803C82.9439 9.24616 82.2656 11.8827 82.2656 14.7031H88.2656C88.2656 12.7735 88.7358 11.5429 89.2468 10.8713C89.6958 10.2813 90.2755 9.96875 91.125 9.96875V3.96875ZM82.2656 14.7031C82.2656 17.538 82.9284 20.1897 84.458 22.2095C86.0558 24.3195 88.4185 25.4844 91.1406 25.4844V19.4844C90.2533 19.4844 89.6786 19.1648 89.2412 18.5873C88.7356 17.9197 88.2656 16.6808 88.2656 14.7031H82.2656ZM91.1406 25.4844C92.7895 25.4844 94.4116 25.1059 95.8462 24.1936C97.2858 23.278 98.3412 21.949 99.05 20.3678L93.575 17.9135C93.2682 18.5979 92.9251 18.9407 92.6264 19.1307C92.3228 19.3238 91.8667 19.4844 91.1406 19.4844V25.4844ZM99.0422 20.3851C99.1678 20.1097 99.1582 20.2584 98.9006 20.4422C98.7679 20.5368 98.6281 20.5982 98.5088 20.6311C98.4001 20.661 98.3486 20.6562 98.3906 20.6562V14.6562C97.4494 14.6562 96.3897 14.863 95.4158 15.5578C94.4903 16.2182 93.9416 17.109 93.5828 17.8962L99.0422 20.3851ZM98.3906 20.6562C98.4143 20.6562 98.1804 20.6541 97.9191 20.4047C97.6459 20.144 97.5938 19.851 97.5938 19.75H103.594C103.594 18.399 103.104 17.0591 102.061 16.0641C101.031 15.0803 99.6951 14.6562 98.3906 14.6562V20.6562ZM97.5938 19.75C97.5938 19.7736 97.5967 19.8668 97.4769 20.1464L102.992 22.5099C103.341 21.6957 103.594 20.7889 103.594 19.75H97.5938ZM97.4986 20.097C96.6915 21.8907 94.5956 23.375 91.2031 23.375V29.375C96.3419 29.375 100.965 27.0156 102.97 22.5592L97.4986 20.097ZM109.359 16.125L109.182 13.1303L109.181 13.1303L109.359 16.125ZM113.578 15.875L113.756 18.8697L116.578 18.7025V15.875H113.578ZM107.516 14.0625L109.758 16.0556L109.826 15.9792L109.888 15.8984L107.516 14.0625ZM104.031 12.125L106.762 13.3664L106.796 13.2923L106.826 13.2166L104.031 12.125ZM113.656 24.2969H110.656V24.4014L110.664 24.5057L113.656 24.2969ZM113.656 23.4375H116.656V20.4375H113.656V23.4375ZM113.562 23.4375V20.4375H111.751L110.908 22.0403L113.562 23.4375ZM113.578 18.6406H116.578V15.449L113.393 15.6464L113.578 18.6406ZM110.047 18.8594L109.861 15.8651L109.844 15.8662L109.827 15.8674L110.047 18.8594ZM108.438 23.2656C106.566 23.2656 105.828 22.2245 105.828 21.1875H99.8281C99.8281 26.1818 103.934 29.2656 108.438 29.2656V23.2656ZM105.828 21.1875C105.828 20.539 106.025 20.2372 106.353 19.9851C106.807 19.6355 107.77 19.2252 109.538 19.1197L109.181 13.1303C106.761 13.2748 104.458 13.8723 102.694 15.2297C100.803 16.6846 99.8281 18.7891 99.8281 21.1875H105.828ZM109.537 19.1197L113.756 18.8697L113.401 12.8803L109.182 13.1303L109.537 19.1197ZM116.578 15.875V14.7656H110.578V15.875H116.578ZM116.578 14.7656C116.578 13.2374 116.014 11.7437 114.778 10.6753C113.598 9.65572 112.124 9.29688 110.766 9.29688V15.2969C111.126 15.2969 111.059 15.3912 110.855 15.2154C110.752 15.1261 110.669 15.0103 110.619 14.8934C110.572 14.7826 110.578 14.7265 110.578 14.7656H116.578ZM110.766 9.29688C109.725 9.29688 108.639 9.47097 107.571 10.05C106.546 10.6054 105.779 11.4041 105.143 12.2266L109.888 15.8984C110.074 15.6589 110.208 15.5145 110.302 15.4277C110.347 15.3858 110.379 15.3602 110.399 15.3454C110.418 15.3311 110.428 15.3257 110.429 15.325C110.43 15.3245 110.429 15.3252 110.428 15.3257C110.427 15.3262 110.433 15.3237 110.45 15.3201C110.485 15.3124 110.579 15.2969 110.766 15.2969V9.29688ZM105.273 12.0694C105.243 12.1037 105.289 12.0424 105.42 11.9809C105.482 11.9517 105.544 11.9313 105.602 11.9192C105.658 11.9072 105.694 11.9062 105.703 11.9062V17.9062C107.371 17.9062 108.741 17.1992 109.758 16.0556L105.273 12.0694ZM105.703 11.9062C105.796 11.9062 106.072 11.9424 106.357 12.2028C106.662 12.4814 106.797 12.8574 106.797 13.1562H100.797C100.797 14.4864 101.33 15.7373 102.311 16.6331C103.272 17.5107 104.501 17.9062 105.703 17.9062V11.9062ZM106.797 13.1562C106.797 13.1996 106.792 13.2533 106.779 13.3069C106.767 13.3579 106.756 13.3806 106.762 13.3664L101.3 10.8836C100.989 11.5687 100.797 12.3184 100.797 13.1562H106.797ZM106.826 13.2166C106.855 13.1408 107.026 12.8176 107.756 12.4788C108.477 12.1436 109.566 11.8906 110.969 11.8906V5.89062C108.903 5.89062 106.913 6.25479 105.229 7.03679C103.552 7.81526 101.989 9.10924 101.237 11.0334L106.826 13.2166ZM110.969 11.8906C112.631 11.8906 113.692 12.3212 114.267 12.776C114.778 13.1793 115.062 13.7076 115.062 14.4844H121.062C121.062 11.8861 119.949 9.61759 117.986 8.0677C116.09 6.56939 113.604 5.89062 110.969 5.89062V11.8906ZM115.062 14.4844V24.0312H121.062V14.4844H115.062ZM115.062 24.0312C115.062 24.1079 115.051 24.0791 115.087 23.9822C115.126 23.8783 115.204 23.738 115.34 23.6055C115.63 23.3213 115.896 23.3281 115.844 23.3281V29.3281C117.089 29.3281 118.464 28.9443 119.539 27.8906C120.629 26.8229 121.062 25.4082 121.062 24.0312H115.062ZM115.844 23.3281C115.775 23.3281 116.025 23.3151 116.32 23.578C116.459 23.7026 116.552 23.842 116.604 23.9591C116.653 24.0699 116.652 24.1254 116.649 24.0881L110.664 24.5057C110.753 25.7943 111.248 27.0942 112.325 28.0548C113.381 28.9974 114.678 29.3281 115.844 29.3281V23.3281ZM116.656 24.2969V23.4375H110.656V24.2969H116.656ZM113.656 20.4375H113.562V26.4375H113.656V20.4375ZM110.908 22.0403C110.594 22.6358 109.663 23.2656 108.438 23.2656V29.2656C111.399 29.2656 114.656 27.8017 116.217 24.8347L110.908 22.0403ZM109.938 25.9688C113.063 25.9688 116.578 23.8147 116.578 19.8594H110.578C110.578 19.8594 110.578 19.8587 110.578 19.8573C110.578 19.8559 110.578 19.8538 110.579 19.8513C110.579 19.846 110.58 19.8393 110.582 19.8314C110.586 19.815 110.592 19.7994 110.598 19.7864C110.612 19.759 110.617 19.7642 110.586 19.7902C110.516 19.8488 110.304 19.9688 109.938 19.9688V25.9688ZM116.578 19.8594V18.6406H110.578V19.8594H116.578ZM113.393 15.6464L109.861 15.8651L110.232 21.8536L113.764 21.6349L113.393 15.6464ZM109.827 15.8674C108.621 15.956 107.307 16.2913 106.226 17.1358C105.043 18.0597 104.375 19.4201 104.375 20.9375H110.375C110.375 21.0575 110.348 21.2422 110.249 21.4447C110.151 21.6471 110.02 21.7853 109.919 21.8642C109.826 21.937 109.782 21.9412 109.842 21.9215C109.903 21.9018 110.038 21.8681 110.266 21.8513L109.827 15.8674ZM104.375 20.9375C104.375 22.4746 105.049 23.8578 106.233 24.7844C107.344 25.6541 108.695 25.9688 109.938 25.9688V19.9688C109.649 19.9688 109.718 19.8927 109.931 20.0594C110.045 20.1488 110.17 20.2877 110.26 20.4746C110.351 20.6615 110.375 20.8296 110.375 20.9375H104.375ZM122.234 12.6875H125.234V9.6875H122.234V12.6875ZM122.234 9.32812V12.3281H125.234V9.32812H122.234ZM127.016 3.25V0.25H127.001L126.986 0.250147L127.016 3.25ZM129.531 6.29688L130.259 9.2073L130.337 9.18783L130.414 9.16421L129.531 6.29688ZM128.656 6.42188L128.756 9.42021L128.774 9.4196L128.792 9.41878L128.656 6.42188ZM126.688 9.32812H123.688V12.3281H126.688V9.32812ZM126.797 12.6875V9.6875H123.797V12.6875H126.797ZM124.516 23.3281C124.414 23.3281 124.68 23.3075 124.976 23.6007C125.112 23.7357 125.186 23.8745 125.22 23.9664C125.25 24.0501 125.234 24.0588 125.234 23.9531H119.234C119.234 25.328 119.649 26.7691 120.754 27.8641C121.851 28.9503 123.258 29.3281 124.516 29.3281V23.3281ZM125.234 23.9531V12.6875H119.234V23.9531H125.234ZM122.234 9.6875H121.359V15.6875H122.234V9.6875ZM121.359 9.6875C121.52 9.6875 121.893 9.74672 122.244 10.0847C122.617 10.4427 122.688 10.8448 122.688 11H116.688C116.688 12.2333 117.117 13.4792 118.088 14.4114C119.037 15.3236 120.245 15.6875 121.359 15.6875V9.6875ZM122.688 11C122.688 11.1753 122.609 11.5813 122.237 11.936C121.888 12.2695 121.52 12.3281 121.359 12.3281V6.32812C120.246 6.32812 119.042 6.69145 118.095 7.59524C117.126 8.52031 116.688 9.76217 116.688 11H122.688ZM121.359 12.3281H122.234V6.32812H121.359V12.3281ZM125.234 9.32812V8.0625H119.234V9.32812H125.234ZM125.234 8.0625C125.234 6.85604 125.529 6.58061 125.542 6.5679C125.571 6.53874 125.872 6.26147 127.045 6.24985L126.986 0.250147C125.003 0.269779 122.913 0.742509 121.341 2.28367C119.752 3.84126 119.234 5.95646 119.234 8.0625H125.234ZM127.016 6.25C127.47 6.25 127.781 6.28657 127.977 6.3263C128.176 6.36689 128.2 6.39954 128.126 6.35595C128.039 6.30502 127.845 6.16365 127.679 5.88602C127.51 5.60159 127.453 5.31169 127.453 5.09375H133.453C133.453 3.41339 132.567 2.00398 131.159 1.17921C129.94 0.464658 128.461 0.25 127.016 0.25V6.25ZM127.453 5.09375C127.453 4.91285 127.506 4.46644 127.858 4.01694C128.192 3.5897 128.567 3.45492 128.649 3.42954L130.414 9.16421C131.105 8.95133 131.941 8.5353 132.584 7.71353C133.244 6.8695 133.453 5.91528 133.453 5.09375H127.453ZM128.804 3.38645C128.766 3.39587 128.729 3.40345 128.688 3.40956C128.646 3.41572 128.592 3.4217 128.52 3.42497L128.792 9.41878C129.345 9.39366 129.824 9.31591 130.259 9.2073L128.804 3.38645ZM128.556 3.42354C127.562 3.45667 126.178 3.6776 125.078 4.72411C123.918 5.82652 123.688 7.24552 123.688 8.26562H129.688C129.688 8.05135 129.738 8.57191 129.211 9.07277C128.743 9.51772 128.344 9.43395 128.756 9.42021L128.556 3.42354ZM123.688 8.26562V9.32812H129.688V8.26562H123.688ZM126.688 12.3281H128.609V6.32812H126.688V12.3281ZM128.609 12.3281C128.449 12.3281 128.081 12.2695 127.732 11.936C127.36 11.5813 127.281 11.1753 127.281 11H133.281C133.281 9.76217 132.843 8.52031 131.874 7.59524C130.927 6.69145 129.723 6.32812 128.609 6.32812V12.3281ZM127.281 11C127.281 10.8448 127.352 10.4427 127.724 10.0847C128.076 9.74672 128.449 9.6875 128.609 9.6875V15.6875C129.723 15.6875 130.932 15.3236 131.881 14.4114C132.851 13.4792 133.281 12.2333 133.281 11H127.281ZM128.609 9.6875H126.797V15.6875H128.609V9.6875ZM123.797 12.6875V23.9531H129.797V12.6875H123.797ZM123.797 23.9531C123.797 24.0533 123.782 24.0413 123.813 23.9562C123.847 23.8633 123.921 23.727 124.054 23.5956C124.343 23.3115 124.602 23.3281 124.516 23.3281V29.3281C125.773 29.3281 127.173 28.9464 128.266 27.8692C129.371 26.7806 129.797 25.342 129.797 23.9531H123.797ZM135.828 18.6719V15.6719H132.828V18.6719H135.828ZM143.641 20.9688L141.486 18.8814L141.418 18.9518L141.354 19.0265L143.641 20.9688ZM146.594 23.0781L143.956 21.6493L143.952 21.657L146.594 23.0781ZM135.875 15.875L132.883 15.6566L132.648 18.875H135.875V15.875ZM142.984 15.875V18.875H146.116L145.982 15.7465L142.984 15.875ZM139.656 23.3594C137.668 23.3594 136.443 22.7608 135.703 21.9892C134.948 21.2003 134.344 19.8574 134.344 17.7031H128.344C128.344 20.9707 129.279 23.9559 131.371 26.1397C133.479 28.3408 136.41 29.3594 139.656 29.3594V23.3594ZM134.344 17.7031C134.344 15.5811 134.956 14.1617 135.743 13.3045C136.505 12.4751 137.684 11.8906 139.438 11.8906V5.89062C136.238 5.89062 133.37 7.01712 131.323 9.2463C129.302 11.4477 128.344 14.4345 128.344 17.7031H134.344ZM139.438 11.8906C141.11 11.8906 142.306 12.4502 143.074 13.2128C143.843 13.9762 144.375 15.133 144.375 16.6875H150.375C150.375 13.6951 149.314 10.9535 147.301 8.9552C145.288 6.95605 142.515 5.89062 139.438 5.89062V11.8906ZM144.375 16.6875C144.375 16.7608 144.364 16.4052 144.736 16.033C145.108 15.6608 145.464 15.6719 145.391 15.6719V21.6719C146.583 21.6719 147.931 21.3236 148.979 20.2756C150.027 19.2276 150.375 17.8798 150.375 16.6875H144.375ZM145.391 15.6719H135.828V21.6719H145.391V15.6719ZM132.828 18.6719V18.875H138.828V18.6719H132.828ZM132.828 18.875C132.828 20.7167 133.391 22.5237 134.666 23.9002C135.963 25.2996 137.749 25.9844 139.641 25.9844V19.9844C139.22 19.9844 139.1 19.8567 139.068 19.8225C139.015 19.7653 138.828 19.5176 138.828 18.875H132.828ZM139.641 25.9844C140.835 25.9844 142.013 25.7786 143.159 25.1982C144.276 24.6333 145.159 23.8154 145.927 22.911L141.354 19.0265C140.888 19.5752 140.607 19.7652 140.45 19.8448C140.323 19.9089 140.119 19.9844 139.641 19.9844V25.9844ZM145.795 23.0561C145.869 22.9797 145.787 23.0857 145.564 23.1849C145.455 23.2336 145.349 23.2644 145.257 23.2814C145.171 23.2973 145.12 23.2969 145.125 23.2969V17.2969C144.523 17.2969 143.834 17.3869 143.119 17.7057C142.424 18.0159 141.896 18.4578 141.486 18.8814L145.795 23.0561ZM145.125 23.2969C144.995 23.2969 144.696 23.2534 144.389 22.9802C144.044 22.6723 143.906 22.2616 143.906 21.9688H149.906C149.906 20.6291 149.37 19.3823 148.38 18.5003C147.429 17.6528 146.239 17.2969 145.125 17.2969V23.2969ZM143.906 21.9688C143.906 21.7174 143.981 21.603 143.956 21.6493L149.232 24.507C149.613 23.8032 149.906 22.9388 149.906 21.9688H143.906ZM143.952 21.657C143.563 22.3801 142.277 23.3594 139.656 23.3594V29.3594C143.504 29.3594 147.406 27.9012 149.236 24.4992L143.952 21.657ZM135.875 18.875H142.984V12.875H135.875V18.875ZM145.982 15.7465C145.908 14.0372 145.305 12.3942 144.097 11.1555C142.874 9.90172 141.227 9.26562 139.484 9.26562V15.2656C139.626 15.2656 139.705 15.2902 139.738 15.3035C139.769 15.3162 139.786 15.3291 139.801 15.3445C139.82 15.3636 139.967 15.5253 139.987 16.0035L145.982 15.7465ZM139.484 9.26562C135.709 9.26562 133.138 12.159 132.883 15.6566L138.867 16.0934C138.899 15.6491 139.048 15.4506 139.113 15.3856C139.163 15.3351 139.253 15.2656 139.484 15.2656V9.26562ZM149.359 23.0156L146.544 24.0527L146.561 24.0972L146.579 24.1412L149.359 23.0156ZM153.016 21.4531L155.404 19.6379L155.334 19.5461L155.258 19.46L153.016 21.4531ZM157.188 19.6094L157.829 16.6789L157.818 16.6764L157.807 16.6741L157.188 19.6094ZM154.375 19.0156L153.746 21.949L153.755 21.9509L154.375 19.0156ZM163.109 12.3594L166.008 11.5864L166 11.556L165.991 11.5258L163.109 12.3594ZM159.812 13.8906L157.452 15.7425L157.482 15.781L157.514 15.8185L159.812 13.8906ZM156.172 15.7188L155.541 18.6518L155.542 18.6519L156.172 15.7188ZM158.938 16.3125L158.308 19.2457L158.319 19.2481L158.938 16.3125ZM156.562 23.3594C153.181 23.3594 152.248 22.1564 152.14 21.89L146.579 24.1412C148.064 27.8124 152.257 29.3594 156.562 29.3594V23.3594ZM152.174 21.9785C152.167 21.9575 152.167 21.954 152.171 21.9723C152.173 21.9825 152.177 22.003 152.18 22.0338C152.184 22.0641 152.188 22.1107 152.188 22.1719H146.188C146.188 22.8743 146.352 23.5308 146.544 24.0527L152.174 21.9785ZM152.188 22.1719C152.188 22.4322 152.072 22.8041 151.759 23.0962C151.465 23.3711 151.164 23.4219 151.031 23.4219V17.4219C149.836 17.4219 148.613 17.8242 147.663 18.7124C146.694 19.6178 146.188 20.8647 146.188 22.1719H152.188ZM151.031 23.4219C150.988 23.4219 150.926 23.4167 150.854 23.3991C150.782 23.3815 150.721 23.3569 150.678 23.3344C150.597 23.2919 150.631 23.2861 150.773 23.4462L155.258 19.46C154.244 18.3194 152.861 17.4219 151.031 17.4219V23.4219ZM150.627 23.2684C151.287 24.1366 152.119 24.9197 153.236 25.4522C154.337 25.977 155.501 26.1562 156.672 26.1562V20.1562C156.108 20.1562 155.889 20.0698 155.818 20.0361C155.763 20.01 155.635 19.9415 155.404 19.6379L150.627 23.2684ZM156.672 26.1562C157.862 26.1562 159.178 25.917 160.298 25.1873C161.523 24.3887 162.406 23.043 162.406 21.3594H156.406C156.406 21.133 156.466 20.8645 156.612 20.6111C156.753 20.3668 156.921 20.2264 157.022 20.1604C157.189 20.0518 157.138 20.1562 156.672 20.1562V26.1562ZM162.406 21.3594C162.406 20.1208 161.94 18.8586 160.785 17.9354C159.871 17.2057 158.745 16.8794 157.829 16.6789L156.546 22.5399C156.865 22.6098 157.05 22.6685 157.145 22.7053C157.243 22.7432 157.174 22.7308 157.04 22.6232C156.882 22.4975 156.688 22.2835 156.552 21.9792C156.422 21.6888 156.406 21.4528 156.406 21.3594H162.406ZM157.807 16.6741L154.995 16.0803L153.755 21.9509L156.568 22.5447L157.807 16.6741ZM155.004 16.0822C153.701 15.803 153.067 15.4003 152.787 15.1225C152.577 14.9146 152.438 14.6643 152.438 14.1562H146.438C146.438 16.1326 147.126 17.9604 148.565 19.3853C149.933 20.7404 151.768 21.5251 153.746 21.949L155.004 16.0822ZM152.438 14.1562C152.438 13.522 152.665 13.0921 153.151 12.7314C153.722 12.3074 154.81 11.8906 156.547 11.8906V5.89062C153.94 5.89062 151.473 6.50506 149.576 7.91315C147.593 9.38447 146.438 11.5874 146.438 14.1562H152.438ZM156.547 11.8906C157.841 11.8906 158.832 12.187 159.47 12.5402C160.142 12.9123 160.237 13.2274 160.228 13.193L165.991 11.5258C165.434 9.60076 163.983 8.1815 162.378 7.29185C160.738 6.38334 158.722 5.89062 156.547 5.89062V11.8906ZM160.211 13.1324C160.221 13.1698 160.227 13.1941 160.23 13.2098C160.234 13.2252 160.234 13.2274 160.233 13.2196C160.23 13.2043 160.219 13.1357 160.219 13.0312H166.219C166.219 12.4056 166.085 11.8759 166.008 11.5864L160.211 13.1324ZM160.219 13.0312C160.219 12.8567 160.289 12.3883 160.721 11.9792C161.137 11.5858 161.522 11.5938 161.469 11.5938V17.5938C162.587 17.5938 163.847 17.2814 164.845 16.3372C165.86 15.3773 166.219 14.1277 166.219 13.0312H160.219ZM161.469 11.5938C161.526 11.5938 161.594 11.6021 161.681 11.6371C161.772 11.6734 161.944 11.7634 162.111 11.9628L157.514 15.8185C158.642 17.1637 160.255 17.5938 161.469 17.5938V11.5938ZM162.173 12.0388C161.678 11.4084 160.99 10.6391 160.013 10.0464C158.987 9.42369 157.806 9.09375 156.469 9.09375V15.0938C156.638 15.0938 156.736 15.1135 156.785 15.1268C156.832 15.1395 156.866 15.1549 156.901 15.1763C156.986 15.2281 157.15 15.3572 157.452 15.7425L162.173 12.0388ZM156.469 9.09375C155.259 9.09375 153.964 9.37584 152.876 10.1239C151.724 10.9162 150.844 12.2373 150.844 13.9062H156.844C156.844 14.1541 156.777 14.417 156.645 14.6501C156.518 14.8738 156.368 15.0041 156.276 15.0675C156.114 15.1788 156.131 15.0938 156.469 15.0938V9.09375ZM150.844 13.9062C150.844 15.2511 151.419 16.477 152.505 17.3473C153.419 18.0789 154.541 18.4367 155.541 18.6518L156.802 12.7857C156.499 12.7205 156.314 12.6603 156.215 12.6208C156.114 12.5803 156.153 12.5817 156.256 12.6644C156.373 12.7581 156.546 12.9361 156.678 13.2114C156.81 13.4869 156.844 13.7397 156.844 13.9062H150.844ZM155.542 18.6519L158.308 19.2457L159.567 13.3793L156.802 12.7856L155.542 18.6519ZM158.319 19.2481C159.925 19.5861 160.556 19.9627 160.777 20.1631C160.856 20.2337 160.878 20.2775 160.896 20.3213C160.92 20.3815 160.969 20.5417 160.969 20.875H166.969C166.969 18.9573 166.365 17.1258 164.801 15.7119C163.397 14.4436 161.513 13.7889 159.556 13.3769L158.319 19.2481ZM160.969 20.875C160.969 21.5334 160.719 22.0274 160.147 22.4483C159.497 22.926 158.323 23.3594 156.562 23.3594V29.3594C159.223 29.3594 161.753 28.7146 163.701 27.2821C165.726 25.7929 166.969 23.5447 166.969 20.875H160.969Z" fill="black" mask="url(#path-1-outside-1_110_3)"/>
</svg>
